<?xml version="1.0" encoding="UTF-8" standalone="no"?>
<svg
   xmlns:dc="http://purl.org/dc/elements/1.1/"
   xmlns:cc="http://creativecommons.org/ns#"
   xmlns:rdf="http://www.w3.org/1999/02/22-rdf-syntax-ns#"
   xmlns:svg="http://www.w3.org/2000/svg"
   xmlns="http://www.w3.org/2000/svg"
   xmlns:xlink="http://www.w3.org/1999/xlink"
   xmlns:sodipodi="http://sodipodi.sourceforge.net/DTD/sodipodi-0.dtd"
   xmlns:inkscape="http://www.inkscape.org/namespaces/inkscape"
   inkscape:version="1.0 (4035a4fb49, 2020-05-01)"
   sodipodi:docname="users.svg"
   id="svg20"
   height="64"
   version="1.1"
   width="64">
  <sodipodi:namedview
     inkscape:current-layer="layer1"
     inkscape:window-maximized="1"
     inkscape:window-y="-9"
     inkscape:window-x="-9"
     inkscape:cy="50.999862"
     inkscape:cx="30.766729"
     inkscape:zoom="25.9375"
     showgrid="false"
     id="namedview22"
     inkscape:window-height="1001"
     inkscape:window-width="1920"
     inkscape:pageshadow="2"
     inkscape:pageopacity="0"
     guidetolerance="10"
     gridtolerance="10"
     objecttolerance="10"
     borderopacity="1"
     bordercolor="#666666"
     pagecolor="#ffffff" />
  <defs
     id="defs5455">
    <linearGradient
       gradientTransform="matrix(2.2857135,0,0,2.2857135,-499.02018,-667.73972)"
       gradientUnits="userSpaceOnUse"
       x2="0"
       y2="517.79797"
       y1="545.79797"
       xlink:href="#linearGradient4143"
       id="linearGradient3028"
       inkscape:collect="always" />
    <linearGradient
       gradientTransform="matrix(2.2857135,0,0,2.2857135,-501.30587,-665.45407)"
       x2="0"
       gradientUnits="userSpaceOnUse"
       y2="523.79797"
       y1="537.79797"
       id="linearGradient4211"
       xlink:href="#linearGradient4290"
       inkscape:collect="always" />
    <linearGradient
       id="linearGradient4143"
       inkscape:collect="always">
      <stop
         id="stop4145"
         style="stop-color:#197cf1" />
      <stop
         id="stop4147"
         style="stop-color:#20bcfa"
         offset="1" />
    </linearGradient>
    <linearGradient
       id="linearGradient4290"
       inkscape:collect="always">
      <stop
         id="stop4292"
         style="stop-color:#7cbaf8" />
      <stop
         id="stop4294"
         style="stop-color:#f4fcff"
         offset="1" />
    </linearGradient>
    <linearGradient
       gradientTransform="matrix(2.2857135,0,0,2.2857135,379.99996,511.22667)"
       gradientUnits="userSpaceOnUse"
       x2="22.999985"
       y2="22.999973"
       x1="9.0000095"
       y1="9"
       id="linearGradient4309"
       xlink:href="#linearGradient4227"
       inkscape:collect="always" />
    <linearGradient
       id="linearGradient4227"
       inkscape:collect="always">
      <stop
         id="stop4229"
         style="stop-color:#292c2f" />
      <stop
         id="stop4231"
         style="stop-opacity:0"
         offset="1" />
    </linearGradient>
  </defs>
  <metadata
     id="metadata5458">
    <rdf:RDF>
      <cc:Work
         rdf:about="">
        <dc:format>image/svg+xml</dc:format>
        <dc:type
           rdf:resource="http://purl.org/dc/dcmitype/StillImage" />
        <dc:title></dc:title>
      </cc:Work>
    </rdf:RDF>
  </metadata>
  <g
     transform="translate(-384.57143,-515.798)"
     id="layer1"
     inkscape:groupmode="layer"
     inkscape:label="Capa 1">
    <rect
       id="rect4130"
       style="fill:url(#linearGradient3028);stroke-width:2.28571"
       height="64.000046"
       rx="32.000011"
       y="515.79797"
       x="384.57144"
       width="64" />
    <path
       d="m 421.14281,534.08381 -2.28572,2.28571 v 4.57143 l 2.28572,2.28571 2.28571,2.28572 v 2.28571 l -9.14285,-9.14285 h -2.28572 -4.57142 l -2.28572,2.28571 v 4.57143 l 2.28572,2.28571 2.28571,2.28572 v 2.28571 h -4.57143 l -2.28571,2.28571 -2.28571,4.57143 -2.28572,4.57143 15.87945,15.87947 c 0.79698,0.059 1.59374,0.12045 2.40626,0.12045 15.58957,0 28.49453,-11.04093 31.38392,-25.75891 l -19.95535,-19.95536 h -2.28571 z"
       id="path4297"
       style="opacity:0.2;fill:url(#linearGradient4309);fill-rule:evenodd;stroke-width:2.28571" />
    <path
       d="m 423.42852,532.02578 c -3.79885,0 -6.85714,3.05828 -6.85714,6.85714 0,3.324 2.3429,6.08144 5.47321,6.71874 -2.66098,0.32064 -5.03223,1.54701 -6.80356,3.36608 a 13.714281,13.714281 0 0 1 2.12498,1.16964 c 1.61435,-1.43821 3.72036,-2.33929 6.06251,-2.33929 5.06519,0 9.14286,4.07767 9.14286,9.14286 h -9.94197 a 13.714281,13.714281 0 0 1 0.60268,2.28571 h 11.625 v -2.28571 c 0,-5.86135 -4.37271,-10.65826 -10.04464,-11.33929 3.13031,-0.6373 5.47321,-3.39474 5.47321,-6.71874 0,-3.79886 -3.05828,-6.85714 -6.85714,-6.85714 z m 0,2.28571 c 2.53257,0 4.57143,2.03886 4.57143,4.57143 0,2.53257 -2.03886,4.57142 -4.57143,4.57142 -2.53257,0 -4.57143,-2.03885 -4.57143,-4.57142 0,-2.53257 2.03886,-4.57143 4.57143,-4.57143 z m -13.71428,2.05803 c -3.79886,0 -6.85714,3.05829 -6.85714,6.85714 0,3.79886 3.05828,6.85715 6.85714,6.85715 3.79886,0 6.85714,-3.05829 6.85714,-6.85715 0,-3.79885 -3.05828,-6.85714 -6.85714,-6.85714 z m 0,13.71429 c -6.33147,0 -11.42857,5.09709 -11.42857,11.42856 v 2.28572 h 22.85714 v -2.28572 c 0,-6.33147 -5.0971,-11.42856 -11.42857,-11.42856 z m 0,-11.42857 c 2.53257,0 4.57143,2.03885 4.57143,4.57142 0,2.53258 -2.03886,4.57143 -4.57143,4.57143 -2.53257,0 -4.57143,-2.03885 -4.57143,-4.57143 0,-2.53257 2.03886,-4.57142 4.57143,-4.57142 z m 0,13.71428 c 5.06519,0 9.14285,4.07767 9.14285,9.14285 h -18.2857 c 0,-5.06518 4.07766,-9.14285 9.14285,-9.14285 z"
       id="path4202"
       style="fill:url(#linearGradient4211);stroke-width:2.28571" />
  </g>
</svg>
