<?xml version="1.0" encoding="UTF-8" standalone="no"?>
<svg
   xmlns:dc="http://purl.org/dc/elements/1.1/"
   xmlns:cc="http://creativecommons.org/ns#"
   xmlns:rdf="http://www.w3.org/1999/02/22-rdf-syntax-ns#"
   xmlns:svg="http://www.w3.org/2000/svg"
   xmlns="http://www.w3.org/2000/svg"
   xmlns:xlink="http://www.w3.org/1999/xlink"
   xmlns:sodipodi="http://sodipodi.sourceforge.net/DTD/sodipodi-0.dtd"
   xmlns:inkscape="http://www.inkscape.org/namespaces/inkscape"
   inkscape:version="1.0 (4035a4fb49, 2020-05-01)"
   sodipodi:docname="services.svg"
   id="svg26"
   version="1.1"
   viewBox="0 0 40 40"
   height="40"
   width="40">
  <metadata
     id="metadata30">
    <rdf:RDF>
      <cc:Work
         rdf:about="">
        <dc:format>image/svg+xml</dc:format>
        <dc:type
           rdf:resource="http://purl.org/dc/dcmitype/StillImage" />
        <dc:title></dc:title>
      </cc:Work>
    </rdf:RDF>
  </metadata>
  <sodipodi:namedview
     inkscape:current-layer="svg26"
     inkscape:window-maximized="1"
     inkscape:window-y="-9"
     inkscape:window-x="2391"
     inkscape:cy="24"
     inkscape:cx="24"
     inkscape:zoom="17.708333"
     showgrid="false"
     id="namedview28"
     inkscape:window-height="1001"
     inkscape:window-width="1920"
     inkscape:pageshadow="2"
     inkscape:pageopacity="0"
     guidetolerance="10"
     gridtolerance="10"
     objecttolerance="10"
     borderopacity="1"
     bordercolor="#666666"
     pagecolor="#ffffff"
     inkscape:document-rotation="0" />
  <defs
     id="defs14">
    <linearGradient
       id="linearGradient4177">
      <stop
         id="stop2"
         offset="0"
         style="stop-color:#000000;stop-opacity:1;" />
      <stop
         id="stop4"
         offset="1"
         style="stop-color:#000000;stop-opacity:0;" />
    </linearGradient>
    <linearGradient
       id="linearGradient4141">
      <stop
         id="stop7"
         offset="0"
         style="stop-color:#d80f61;stop-opacity:1" />
      <stop
         id="stop9"
         offset="1"
         style="stop-color:#ea55b3;stop-opacity:1" />
    </linearGradient>
    <linearGradient
       gradientTransform="translate(-3.9999895,-4)"
       y2="4"
       x2="25"
       y1="44"
       x1="25"
       gradientUnits="userSpaceOnUse"
       id="linearGradient4151"
       xlink:href="#linearGradient4141" />
    <linearGradient
       gradientTransform="translate(0,-1004.3622)"
       gradientUnits="userSpaceOnUse"
       y2="1046.3621"
       x2="44"
       y1="1018.362"
       x1="16"
       id="linearGradient4183"
       xlink:href="#linearGradient4177" />
  </defs>
  <rect
     id="rect16"
     rx="2.9999995"
     ry="3"
     y="0"
     x="4.9999994e-06"
     height="40"
     width="39.999996"
     style="opacity:1;fill:url(#linearGradient4151);fill-opacity:1;stroke:none" />
  <path
     id="path20"
     d="m 0,36 v 1 c 0,1.662 1.3379998,3 2.9999996,3 H 36.999995 c 1.662,0 3,-1.338 3,-3 v -1 c 0,1.662 -1.338,3 -3,3 H 2.9999996 C 1.3379998,39 0,37.662 0,36 Z"
     style="opacity:0.15;fill:#000000;fill-opacity:1" />
  <path
     id="path22"
     d="M 12.358527,0.959577 C 11.699409,0.983645 11.337997,1.2001679 11.10186,1.6663742 10.950366,1.9655306 10.826881,2.4635601 10.826745,2.7736808 10.826254,3.9113845 9.6546478,4.9499636 8.370199,4.9499636 7.739961,4.9499636 7.3939701,4.7801504 6.1177732,3.8426569 5.5369005,3.4159401 5.169536,3.5260289 4.2682732,4.3963103 3.4120221,5.2232692 3.3912111,5.6188763 4.1493504,6.605664 4.4626608,7.013572 4.7795791,7.557777 4.8540081,7.81575 5.0381175,8.453552 4.7363576,9.621029 4.2522968,10.140007 c -0.3967545,0.425379 -1.3808888,0.75734 -2.2399934,0.75734 -0.8169463,0 -1.11112701,0.455776 -1.11112701,1.718366 0,0.983134 0.037896,1.116845 0.38161421,1.340588 0.2100369,0.136831 0.8176915,0.309943 1.3507447,0.384821 0.5330803,0.07488 1.1476417,0.252001 1.3649397,0.393467 0.4587786,0.298711 0.9912137,1.368222 0.9957576,2.002191 0.00364,0.460234 -0.3572863,1.273644 -0.7295128,1.643489 -0.4056969,0.403094 -0.703249,1.136634 -0.5963859,1.471179 0.1369075,0.428589 1.0639524,1.345491 1.5442145,1.526892 0.2750782,0.103938 0.475582,0.07399 0.7419361,-0.111426 0.7807037,-0.543313 2.1159175,-1.133425 2.5665894,-1.133425 0.6794389,0 1.8064611,0.588329 2.0536211,1.072453 0.11636,0.228022 0.261429,0.758499 0.323044,1.178708 0.149376,1.019147 0.386603,1.499794 0.782758,1.582606 0.180102,0.03744 0.469238,0.100283 0.642533,0.139327 v 0 c 0.173295,0.04011 0.562897,0.04011 0.866175,0 0.791028,-0.104206 1.212565,-0.682195 1.345419,-1.845571 0.121477,-1.063717 0.222051,-1.234867 1.020604,-1.735749 0.810894,-0.508637 1.44573,-0.607851 2.069598,-0.323848 0.517267,0.235509 0.725905,0.357365 1.574395,0.912266 0.621677,0.40666 1.008407,0.338646 1.727032,-0.306377 1.08052,-0.96994 1.103076,-1.390417 0.13489,-2.498437 -0.921601,-1.054535 -0.932743,-2.353138 -0.02663,-3.349732 0.34699,-0.381612 0.658437,-0.514075 1.686211,-0.715533 1.551794,-0.304148 1.804135,-0.552673 1.808679,-1.788075 0.0045,-1.233886 -0.195406,-1.435344 -1.652487,-1.659177 C 21.490487,10.583393 21.045958,10.276749 20.558825,9.199839 20.153792,8.30442 20.265989,7.779381 21.130365,6.549951 21.573622,5.9195473 21.793701,5.4590465 21.742718,5.2650762 21.628785,4.8322086 20.193687,3.5414503 19.825769,3.5414503 c -0.170378,0 -0.624158,0.2397886 -1.008181,0.5310115 -1.05929,0.8035149 -1.691046,0.9850056 -2.596762,0.7469106 C 15.15661,4.5397378 14.778549,4.0983127 14.509769,2.8242236 14.201084,1.3609779 14.001698,1.0979235 13.123527,0.9996012 12.830928,0.9666191 12.578224,0.953248 12.358518,0.9612707 Z"
     style="opacity:1;fill:#ffffff;fill-opacity:1;fill-rule:nonzero;stroke:none;stroke-width:9.81056;stroke-miterlimit:4;stroke-dasharray:none;stroke-opacity:0.502732" />
  <path
     id="path24"
     d="m 12.48941,7.658824 a 4.9999994,5 0 0 1 5,5 4.9999994,5 0 0 1 -5,5 4.9999994,5 0 0 1 -4.9999989,-5 4.9999994,5 0 0 1 4.9999989,-5 z"
     style="opacity:1;fill:#e43f99;fill-opacity:1;fill-rule:nonzero;stroke:none;stroke-width:10.9;stroke-miterlimit:4;stroke-dasharray:none;stroke-opacity:0.502732" />
  <path
     style="opacity:1;fill:#ffffff;fill-opacity:1;fill-rule:nonzero;stroke:none;stroke-width:9.90302;stroke-miterlimit:4;stroke-dasharray:none;stroke-opacity:0.502732"
     d="m 31.639252,15.746188 c -0.623636,-0.208537 -1.037974,-0.128123 -1.424295,0.235472 -0.247867,0.233325 -0.540394,0.666985 -0.650922,0.963993 -0.405475,1.089603 -1.868505,1.672768 -3.067108,1.221458 -0.588116,-0.221444 -0.85053,-0.505673 -1.707691,-1.852084 -0.39014,-0.612838 -0.772143,-0.636467 -1.922986,-0.119525 -1.093417,0.491264 -1.25367,0.862893 -0.897492,2.074494 0.147156,0.500811 0.24916,1.133444 0.226777,1.406702 -0.05524,0.675622 -0.752457,1.687889 -1.388919,2.014921 -0.521671,0.268053 -1.558206,0.24024 -2.359892,-0.06162 -0.762346,-0.287047 -1.199119,0.04616 -1.648595,1.255565 -0.34999,0.941718 -0.362227,1.083111 -0.121133,1.418199 0.147288,0.204866 0.652702,0.584193 1.123473,0.843214 0.470796,0.25903 0.981228,0.644626 1.133642,0.856484 0.321777,0.447326 0.437886,1.65886 0.216437,2.267719 -0.16045,0.442121 -0.786817,1.09445 -1.26583,1.317927 -0.522081,0.243565 -1.060882,0.841654 -1.080258,1.199653 -0.02482,0.458638 0.513856,1.662644 0.897442,2.005151 0.219692,0.196213 0.417457,0.237973 0.732015,0.15396 0.921943,-0.246113 2.377993,-0.342218 2.798544,-0.183867 0.63403,0.238731 1.476284,1.198272 1.53458,1.748844 0.02741,0.259301 -0.02606,0.818403 -0.118164,1.242559 -0.223418,1.028698 -0.173152,1.57245 0.167045,1.790968 0.154736,0.09914 0.402176,0.260933 0.549989,0.359222 v 0 c 0.147434,0.09931 0.510996,0.236206 0.808285,0.304343 0.775256,0.178124 1.374381,-0.227402 1.912512,-1.295087 0.492035,-0.976223 0.646815,-1.104825 1.570308,-1.304022 0.93777,-0.20229 1.565496,-0.07427 2.046564,0.416979 0.398856,0.407338 0.550168,0.597368 1.144408,1.427023 0.435359,0.607964 0.820455,0.678699 1.720676,0.313349 1.353597,-0.549423 1.524333,-0.944261 1.015305,-2.345789 -0.484597,-1.33393 -0.0327,-2.58174 1.167639,-3.217974 0.459652,-0.243615 0.79744,-0.261065 1.828238,-0.09291 1.556356,0.25391 1.880304,0.104527 2.32434,-1.077241 0.443498,-1.180311 0.328631,-1.443538 -0.951383,-2.169908 -1.217958,-0.69113 -1.523614,-1.141048 -1.594815,-2.343754 -0.0592,-1.000011 0.232412,-1.46351 1.476688,-2.337434 0.638051,-0.448102 1.007358,-0.811876 1.028835,-1.015588 0.04778,-0.454665 -0.8319,-2.19529 -1.175229,-2.324563 -0.158991,-0.05986 -0.667806,0.01038 -1.129837,0.154401 -1.274538,0.397468 -1.92868,0.349336 -2.689102,-0.196966 -0.89354,-0.641783 -1.089189,-1.19745 -0.886437,-2.512305 0.232855,-1.510064 0.14044,-1.832094 -0.644036,-2.234833 -0.261301,-0.134402 -0.492356,-0.236001 -0.700235,-0.305513 z"
     id="path22-3" />
  <path
     style="opacity:1;fill:#de267c;fill-opacity:1;fill-rule:nonzero;stroke:none;stroke-width:10.9;stroke-miterlimit:4;stroke-dasharray:none;stroke-opacity:0.502732"
     d="m 27.680001,21.832942 a 4.9999994,5 0 0 1 4.999999,5 4.9999994,5 0 0 1 -4.999999,5 4.9999994,5 0 0 1 -5,-5 4.9999994,5 0 0 1 5,-5 z"
     id="path24-7" />
</svg>
